<mxfile host="Electron" agent="Mozilla/5.0 (Windows NT 10.0; Win64; x64) AppleWebKit/537.36 (KHTML, like Gecko) draw.io/28.1.2 Chrome/138.0.7204.243 Electron/37.4.0 Safari/537.36" version="28.1.2" pages="2">
  <diagram name="Page-1" id="l15hVxWtN5V961jEMN0H">
    <mxGraphModel dx="806" dy="753" grid="1" gridSize="10" guides="1" tooltips="1" connect="1" arrows="1" fold="1" page="1" pageScale="1" pageWidth="827" pageHeight="1169" math="0" shadow="0">
      <root>
        <mxCell id="0" />
        <mxCell id="1" parent="0" />
        <mxCell id="7nyph_vK9g72rSiwwclA-2" value="Start" style="rounded=1;whiteSpace=wrap;html=1;arcSize=50;fontFamily=Times New Roman;fillColor=#e1d5e7;strokeColor=#9673a6;fontSize=13;" parent="1" vertex="1">
          <mxGeometry x="125" y="30" width="40" height="20" as="geometry" />
        </mxCell>
        <mxCell id="7nyph_vK9g72rSiwwclA-3" value="" style="endArrow=classic;html=1;rounded=0;exitX=0.5;exitY=1;exitDx=0;exitDy=0;entryX=0.5;entryY=0;entryDx=0;entryDy=0;fontFamily=Times New Roman;fontSize=13;" parent="1" source="7nyph_vK9g72rSiwwclA-2" target="7nyph_vK9g72rSiwwclA-4" edge="1">
          <mxGeometry width="50" height="50" relative="1" as="geometry">
            <mxPoint x="375" y="210" as="sourcePoint" />
            <mxPoint x="145" y="60" as="targetPoint" />
          </mxGeometry>
        </mxCell>
        <mxCell id="7nyph_vK9g72rSiwwclA-4" value="nama = &quot;Hammam Syamil&quot;" style="rounded=0;whiteSpace=wrap;html=1;fontFamily=Times New Roman;fillColor=#fff2cc;strokeColor=#d6b656;fontSize=13;" parent="1" vertex="1">
          <mxGeometry x="60" y="80" width="170" height="40" as="geometry" />
        </mxCell>
        <mxCell id="7nyph_vK9g72rSiwwclA-5" value="NIM = &quot;2509106073&quot;" style="rounded=0;whiteSpace=wrap;html=1;fontFamily=Times New Roman;fillColor=#fff2cc;strokeColor=#d6b656;fontSize=13;" parent="1" vertex="1">
          <mxGeometry x="74" y="150" width="140" height="40" as="geometry" />
        </mxCell>
        <mxCell id="7nyph_vK9g72rSiwwclA-6" value="" style="endArrow=classic;html=1;rounded=0;exitX=0.5;exitY=1;exitDx=0;exitDy=0;entryX=0.5;entryY=0;entryDx=0;entryDy=0;fontFamily=Times New Roman;fontSize=13;" parent="1" source="7nyph_vK9g72rSiwwclA-4" target="7nyph_vK9g72rSiwwclA-5" edge="1">
          <mxGeometry width="50" height="50" relative="1" as="geometry">
            <mxPoint x="515" y="90" as="sourcePoint" />
            <mxPoint x="565" y="40" as="targetPoint" />
          </mxGeometry>
        </mxCell>
        <mxCell id="7nyph_vK9g72rSiwwclA-71" style="edgeStyle=orthogonalEdgeStyle;rounded=0;orthogonalLoop=1;jettySize=auto;html=1;exitX=0.5;exitY=1;exitDx=0;exitDy=0;entryX=0.5;entryY=0;entryDx=0;entryDy=0;fontFamily=Times New Roman;fontSize=13;" parent="1" source="7nyph_vK9g72rSiwwclA-7" target="7nyph_vK9g72rSiwwclA-9" edge="1">
          <mxGeometry relative="1" as="geometry" />
        </mxCell>
        <mxCell id="7nyph_vK9g72rSiwwclA-7" value="kesempatan = 1" style="rounded=0;whiteSpace=wrap;html=1;fontFamily=Times New Roman;fillColor=#fff2cc;strokeColor=#d6b656;fontSize=13;" parent="1" vertex="1">
          <mxGeometry x="99" y="220" width="91" height="40" as="geometry" />
        </mxCell>
        <mxCell id="7nyph_vK9g72rSiwwclA-8" value="" style="endArrow=classic;html=1;rounded=0;exitX=0.5;exitY=1;exitDx=0;exitDy=0;entryX=0.5;entryY=0;entryDx=0;entryDy=0;fontFamily=Times New Roman;fontSize=13;" parent="1" source="7nyph_vK9g72rSiwwclA-5" target="7nyph_vK9g72rSiwwclA-7" edge="1">
          <mxGeometry width="50" height="50" relative="1" as="geometry">
            <mxPoint x="145" y="210" as="sourcePoint" />
            <mxPoint x="195" y="160" as="targetPoint" />
          </mxGeometry>
        </mxCell>
        <mxCell id="7nyph_vK9g72rSiwwclA-70" style="edgeStyle=orthogonalEdgeStyle;rounded=0;orthogonalLoop=1;jettySize=auto;html=1;exitX=1;exitY=0.5;exitDx=0;exitDy=0;entryX=0;entryY=0.5;entryDx=0;entryDy=0;fontFamily=Times New Roman;fontSize=13;" parent="1" source="7nyph_vK9g72rSiwwclA-9" target="7nyph_vK9g72rSiwwclA-10" edge="1">
          <mxGeometry relative="1" as="geometry" />
        </mxCell>
        <mxCell id="7nyph_vK9g72rSiwwclA-201" value="True" style="edgeLabel;html=1;align=center;verticalAlign=middle;resizable=0;points=[];fontFamily=Times New Roman;fontSize=13;" parent="7nyph_vK9g72rSiwwclA-70" vertex="1" connectable="0">
          <mxGeometry x="-0.1619" relative="1" as="geometry">
            <mxPoint as="offset" />
          </mxGeometry>
        </mxCell>
        <mxCell id="7nyph_vK9g72rSiwwclA-112" style="edgeStyle=orthogonalEdgeStyle;rounded=0;orthogonalLoop=1;jettySize=auto;html=1;exitX=0.5;exitY=1;exitDx=0;exitDy=0;entryX=0.5;entryY=0;entryDx=0;entryDy=0;fontFamily=Times New Roman;fontSize=13;" parent="1" source="7nyph_vK9g72rSiwwclA-9" target="7nyph_vK9g72rSiwwclA-111" edge="1">
          <mxGeometry relative="1" as="geometry" />
        </mxCell>
        <mxCell id="7nyph_vK9g72rSiwwclA-202" value="False" style="edgeLabel;html=1;align=center;verticalAlign=middle;resizable=0;points=[];fontFamily=Times New Roman;fontSize=13;" parent="7nyph_vK9g72rSiwwclA-112" vertex="1" connectable="0">
          <mxGeometry x="-0.1268" y="-1" relative="1" as="geometry">
            <mxPoint as="offset" />
          </mxGeometry>
        </mxCell>
        <mxCell id="7nyph_vK9g72rSiwwclA-9" value="kesempatan &amp;lt;= 3" style="shape=hexagon;perimeter=hexagonPerimeter2;whiteSpace=wrap;html=1;fixedSize=1;fontFamily=Times New Roman;fillColor=#ffe6cc;strokeColor=#d79b00;fontSize=13;" parent="1" vertex="1">
          <mxGeometry x="94" y="290" width="100" height="40" as="geometry" />
        </mxCell>
        <mxCell id="7nyph_vK9g72rSiwwclA-17" value="" style="edgeStyle=orthogonalEdgeStyle;rounded=0;orthogonalLoop=1;jettySize=auto;html=1;fontFamily=Times New Roman;fontSize=13;" parent="1" source="7nyph_vK9g72rSiwwclA-10" target="7nyph_vK9g72rSiwwclA-11" edge="1">
          <mxGeometry relative="1" as="geometry" />
        </mxCell>
        <mxCell id="7nyph_vK9g72rSiwwclA-10" value="Output&lt;div&gt;&amp;nbsp;&quot;Username : &quot;&lt;/div&gt;" style="shape=parallelogram;perimeter=parallelogramPerimeter;whiteSpace=wrap;html=1;fixedSize=1;fontFamily=Times New Roman;fillColor=#d5e8d4;strokeColor=#82b366;fontSize=13;" parent="1" vertex="1">
          <mxGeometry x="234" y="280" width="130" height="40" as="geometry" />
        </mxCell>
        <mxCell id="7nyph_vK9g72rSiwwclA-20" value="" style="edgeStyle=orthogonalEdgeStyle;rounded=0;orthogonalLoop=1;jettySize=auto;html=1;fontFamily=Times New Roman;fontSize=13;" parent="1" source="7nyph_vK9g72rSiwwclA-11" target="7nyph_vK9g72rSiwwclA-12" edge="1">
          <mxGeometry relative="1" as="geometry" />
        </mxCell>
        <mxCell id="7nyph_vK9g72rSiwwclA-11" value="Input user" style="shape=parallelogram;perimeter=parallelogramPerimeter;whiteSpace=wrap;html=1;fixedSize=1;fontFamily=Times New Roman;fillColor=#dae8fc;strokeColor=#6c8ebf;fontSize=13;" parent="1" vertex="1">
          <mxGeometry x="234" y="335" width="130" height="40" as="geometry" />
        </mxCell>
        <mxCell id="7nyph_vK9g72rSiwwclA-21" value="" style="edgeStyle=orthogonalEdgeStyle;rounded=0;orthogonalLoop=1;jettySize=auto;html=1;fontFamily=Times New Roman;fontSize=13;" parent="1" source="7nyph_vK9g72rSiwwclA-12" target="7nyph_vK9g72rSiwwclA-14" edge="1">
          <mxGeometry relative="1" as="geometry" />
        </mxCell>
        <mxCell id="7nyph_vK9g72rSiwwclA-12" value="Output&amp;nbsp;&lt;div&gt;&quot;Password : &quot;&lt;/div&gt;" style="shape=parallelogram;perimeter=parallelogramPerimeter;whiteSpace=wrap;html=1;fixedSize=1;fontFamily=Times New Roman;fillColor=#d5e8d4;strokeColor=#82b366;fontSize=13;" parent="1" vertex="1">
          <mxGeometry x="234" y="391" width="130" height="40" as="geometry" />
        </mxCell>
        <mxCell id="7nyph_vK9g72rSiwwclA-22" value="" style="edgeStyle=orthogonalEdgeStyle;rounded=0;orthogonalLoop=1;jettySize=auto;html=1;fontFamily=Times New Roman;fontSize=13;" parent="1" source="7nyph_vK9g72rSiwwclA-14" target="7nyph_vK9g72rSiwwclA-15" edge="1">
          <mxGeometry relative="1" as="geometry" />
        </mxCell>
        <mxCell id="7nyph_vK9g72rSiwwclA-14" value="Input password" style="shape=parallelogram;perimeter=parallelogramPerimeter;whiteSpace=wrap;html=1;fixedSize=1;fontFamily=Times New Roman;fillColor=#dae8fc;strokeColor=#6c8ebf;fontSize=13;" parent="1" vertex="1">
          <mxGeometry x="234" y="450" width="130" height="40" as="geometry" />
        </mxCell>
        <mxCell id="7nyph_vK9g72rSiwwclA-24" value="" style="edgeStyle=orthogonalEdgeStyle;rounded=0;orthogonalLoop=1;jettySize=auto;html=1;fontFamily=Times New Roman;fontSize=13;" parent="1" source="7nyph_vK9g72rSiwwclA-15" target="7nyph_vK9g72rSiwwclA-23" edge="1">
          <mxGeometry relative="1" as="geometry" />
        </mxCell>
        <mxCell id="7nyph_vK9g72rSiwwclA-28" value="True" style="edgeLabel;html=1;align=center;verticalAlign=middle;resizable=0;points=[];fontFamily=Times New Roman;fontSize=13;" parent="7nyph_vK9g72rSiwwclA-24" vertex="1" connectable="0">
          <mxGeometry x="-0.6965" y="-1" relative="1" as="geometry">
            <mxPoint x="8" y="-1" as="offset" />
          </mxGeometry>
        </mxCell>
        <mxCell id="7nyph_vK9g72rSiwwclA-106" value="" style="edgeStyle=orthogonalEdgeStyle;rounded=0;orthogonalLoop=1;jettySize=auto;html=1;fontFamily=Times New Roman;fontSize=13;" parent="1" source="7nyph_vK9g72rSiwwclA-15" target="7nyph_vK9g72rSiwwclA-104" edge="1">
          <mxGeometry relative="1" as="geometry" />
        </mxCell>
        <mxCell id="7nyph_vK9g72rSiwwclA-107" value="False" style="edgeLabel;html=1;align=center;verticalAlign=middle;resizable=0;points=[];fontFamily=Times New Roman;fontSize=13;" parent="7nyph_vK9g72rSiwwclA-106" vertex="1" connectable="0">
          <mxGeometry x="-0.0833" relative="1" as="geometry">
            <mxPoint y="-9" as="offset" />
          </mxGeometry>
        </mxCell>
        <mxCell id="7nyph_vK9g72rSiwwclA-15" value="user == nama &amp;amp;&amp;amp; pass = NIM" style="rhombus;whiteSpace=wrap;html=1;fontFamily=Times New Roman;fillColor=#f8cecc;strokeColor=#b85450;fontSize=13;" parent="1" vertex="1">
          <mxGeometry x="259" y="510" width="80" height="80" as="geometry" />
        </mxCell>
        <mxCell id="7nyph_vK9g72rSiwwclA-29" value="" style="edgeStyle=orthogonalEdgeStyle;rounded=0;orthogonalLoop=1;jettySize=auto;html=1;fontFamily=Times New Roman;fontSize=13;" parent="1" source="7nyph_vK9g72rSiwwclA-23" target="7nyph_vK9g72rSiwwclA-27" edge="1">
          <mxGeometry relative="1" as="geometry" />
        </mxCell>
        <mxCell id="7nyph_vK9g72rSiwwclA-23" value="keluar = false" style="whiteSpace=wrap;html=1;fontFamily=Times New Roman;fillColor=#fff2cc;strokeColor=#d6b656;fontSize=13;" parent="1" vertex="1">
          <mxGeometry x="374" y="495" width="45" height="30" as="geometry" />
        </mxCell>
        <mxCell id="7nyph_vK9g72rSiwwclA-33" value="" style="edgeStyle=orthogonalEdgeStyle;rounded=0;orthogonalLoop=1;jettySize=auto;html=1;entryX=0.5;entryY=0;entryDx=0;entryDy=0;fontFamily=Times New Roman;fontSize=13;" parent="1" source="7nyph_vK9g72rSiwwclA-27" target="7nyph_vK9g72rSiwwclA-96" edge="1">
          <mxGeometry relative="1" as="geometry">
            <mxPoint x="494" y="1000" as="targetPoint" />
          </mxGeometry>
        </mxCell>
        <mxCell id="7nyph_vK9g72rSiwwclA-100" value="False" style="edgeLabel;html=1;align=center;verticalAlign=middle;resizable=0;points=[];fontFamily=Times New Roman;fontSize=13;" parent="7nyph_vK9g72rSiwwclA-33" vertex="1" connectable="0">
          <mxGeometry x="-0.1011" relative="1" as="geometry">
            <mxPoint as="offset" />
          </mxGeometry>
        </mxCell>
        <mxCell id="7nyph_vK9g72rSiwwclA-203" style="edgeStyle=orthogonalEdgeStyle;rounded=0;orthogonalLoop=1;jettySize=auto;html=1;exitX=1;exitY=0.5;exitDx=0;exitDy=0;entryX=0.5;entryY=0;entryDx=0;entryDy=0;fontFamily=Times New Roman;fontSize=13;" parent="1" source="7nyph_vK9g72rSiwwclA-27" target="7nyph_vK9g72rSiwwclA-75" edge="1">
          <mxGeometry relative="1" as="geometry" />
        </mxCell>
        <mxCell id="7nyph_vK9g72rSiwwclA-208" value="True" style="edgeLabel;html=1;align=center;verticalAlign=middle;resizable=0;points=[];fontFamily=Times New Roman;fontSize=13;" parent="7nyph_vK9g72rSiwwclA-203" vertex="1" connectable="0">
          <mxGeometry x="-0.63" y="-1" relative="1" as="geometry">
            <mxPoint as="offset" />
          </mxGeometry>
        </mxCell>
        <mxCell id="7nyph_vK9g72rSiwwclA-27" value="keluar = false" style="shape=hexagon;perimeter=hexagonPerimeter2;whiteSpace=wrap;html=1;fixedSize=1;fontFamily=Times New Roman;fillColor=#ffe6cc;strokeColor=#d79b00;fontSize=13;" parent="1" vertex="1">
          <mxGeometry x="444" y="490" width="100" height="40" as="geometry" />
        </mxCell>
        <mxCell id="7nyph_vK9g72rSiwwclA-205" style="edgeStyle=orthogonalEdgeStyle;rounded=0;orthogonalLoop=1;jettySize=auto;html=1;exitX=0.5;exitY=1;exitDx=0;exitDy=0;entryX=0.625;entryY=1;entryDx=0;entryDy=0;fontFamily=Times New Roman;fontSize=13;" parent="1" source="7nyph_vK9g72rSiwwclA-75" target="7nyph_vK9g72rSiwwclA-27" edge="1">
          <mxGeometry relative="1" as="geometry" />
        </mxCell>
        <mxCell id="7nyph_vK9g72rSiwwclA-75" value="A" style="shape=offPageConnector;whiteSpace=wrap;html=1;fontFamily=Times New Roman;fillColor=#60a917;fontColor=#ffffff;strokeColor=#2D7600;fontSize=13;" parent="1" vertex="1">
          <mxGeometry x="564" y="570" width="33.08" height="40" as="geometry" />
        </mxCell>
        <mxCell id="WekAsw2mSdfXd7IFs4sp-2" style="edgeStyle=orthogonalEdgeStyle;rounded=0;orthogonalLoop=1;jettySize=auto;html=1;exitX=0.5;exitY=1;exitDx=0;exitDy=0;endArrow=none;endFill=0;" parent="1" source="7nyph_vK9g72rSiwwclA-96" edge="1">
          <mxGeometry relative="1" as="geometry">
            <mxPoint x="144" y="780" as="targetPoint" />
            <Array as="points">
              <mxPoint x="494" y="780" />
            </Array>
          </mxGeometry>
        </mxCell>
        <mxCell id="7nyph_vK9g72rSiwwclA-96" value="break" style="rounded=0;whiteSpace=wrap;html=1;fontFamily=Times New Roman;fillColor=#fff2cc;strokeColor=#d6b656;fontSize=13;" parent="1" vertex="1">
          <mxGeometry x="469" y="640" width="50" height="20" as="geometry" />
        </mxCell>
        <mxCell id="7nyph_vK9g72rSiwwclA-109" style="edgeStyle=orthogonalEdgeStyle;rounded=0;orthogonalLoop=1;jettySize=auto;html=1;exitX=0.5;exitY=1;exitDx=0;exitDy=0;entryX=0.625;entryY=1;entryDx=0;entryDy=0;fontFamily=Times New Roman;fontSize=13;" parent="1" source="7nyph_vK9g72rSiwwclA-104" target="7nyph_vK9g72rSiwwclA-9" edge="1">
          <mxGeometry relative="1" as="geometry" />
        </mxCell>
        <mxCell id="7nyph_vK9g72rSiwwclA-104" value="Output &quot;Login&amp;nbsp;&lt;div&gt;gagal! Username atau Password salah&quot;&lt;/div&gt;" style="shape=parallelogram;perimeter=parallelogramPerimeter;whiteSpace=wrap;html=1;fixedSize=1;fontFamily=Times New Roman;fillColor=#d5e8d4;strokeColor=#82b366;fontSize=13;" parent="1" vertex="1">
          <mxGeometry x="221.5" y="625" width="155" height="60" as="geometry" />
        </mxCell>
        <mxCell id="vsabAAHvKyTqSVejbieQ-2" style="edgeStyle=orthogonalEdgeStyle;rounded=0;orthogonalLoop=1;jettySize=auto;html=1;exitX=0.5;exitY=1;exitDx=0;exitDy=0;entryX=0.5;entryY=0;entryDx=0;entryDy=0;fontSize=13;fontFamily=Times New Roman;" parent="1" source="7nyph_vK9g72rSiwwclA-111" target="vsabAAHvKyTqSVejbieQ-1" edge="1">
          <mxGeometry relative="1" as="geometry" />
        </mxCell>
        <mxCell id="7nyph_vK9g72rSiwwclA-111" value="Output&amp;nbsp;&lt;div&gt;&quot;Kesempatan login&amp;nbsp;&lt;/div&gt;&lt;div&gt;anda telah habis&quot;&lt;/div&gt;" style="shape=parallelogram;perimeter=parallelogramPerimeter;whiteSpace=wrap;html=1;fixedSize=1;fontFamily=Times New Roman;fillColor=#d5e8d4;strokeColor=#82b366;fontSize=13;" parent="1" vertex="1">
          <mxGeometry x="79" y="710" width="130" height="60" as="geometry" />
        </mxCell>
        <mxCell id="vsabAAHvKyTqSVejbieQ-1" value="End" style="rounded=1;whiteSpace=wrap;html=1;arcSize=50;fontFamily=Times New Roman;fillColor=#e1d5e7;strokeColor=#9673a6;fontSize=13;" parent="1" vertex="1">
          <mxGeometry x="124" y="800" width="40" height="20" as="geometry" />
        </mxCell>
        <mxCell id="WYtmCfgWawnSdigf7fTq-2" style="edgeStyle=orthogonalEdgeStyle;rounded=0;orthogonalLoop=1;jettySize=auto;html=1;exitX=0;exitY=0.5;exitDx=0;exitDy=0;endArrow=none;endFill=0;" parent="1" source="WYtmCfgWawnSdigf7fTq-1" edge="1">
          <mxGeometry relative="1" as="geometry">
            <mxPoint x="494" y="780" as="targetPoint" />
          </mxGeometry>
        </mxCell>
        <mxCell id="WYtmCfgWawnSdigf7fTq-1" value="D" style="shape=offPageConnector;whiteSpace=wrap;html=1;fontFamily=Times New Roman;fillColor=#d80073;fontColor=#ffffff;strokeColor=#A50040;fontSize=12;" parent="1" vertex="1">
          <mxGeometry x="544" y="760" width="33.08" height="40" as="geometry" />
        </mxCell>
      </root>
    </mxGraphModel>
  </diagram>
  <diagram id="ZCiQZqQ4-T9zbwjsAyVR" name="Page-2">
    <mxGraphModel dx="679" dy="634" grid="1" gridSize="10" guides="1" tooltips="1" connect="1" arrows="1" fold="1" page="1" pageScale="1" pageWidth="827" pageHeight="1169" math="0" shadow="0">
      <root>
        <mxCell id="0" />
        <mxCell id="1" parent="0" />
        <mxCell id="t_Hz77RA-XE70O0GCt_d-1" style="edgeStyle=orthogonalEdgeStyle;rounded=0;orthogonalLoop=1;jettySize=auto;html=1;exitX=1;exitY=0.5;exitDx=0;exitDy=0;entryX=0;entryY=0.5;entryDx=0;entryDy=0;fontSize=12;fontFamily=Times New Roman;" parent="1" source="JV7o6c7i3q6e59PT3wuv-2" target="JV7o6c7i3q6e59PT3wuv-4" edge="1">
          <mxGeometry relative="1" as="geometry" />
        </mxCell>
        <mxCell id="JV7o6c7i3q6e59PT3wuv-2" value="Output &quot;Menu&amp;nbsp;&lt;div&gt;Pembelian&quot;&lt;/div&gt;" style="shape=parallelogram;perimeter=parallelogramPerimeter;whiteSpace=wrap;html=1;fixedSize=1;fontFamily=Times New Roman;fillColor=#d5e8d4;strokeColor=#82b366;fontSize=12;" parent="1" vertex="1">
          <mxGeometry x="82.92000000000004" y="20" width="120" height="60" as="geometry" />
        </mxCell>
        <mxCell id="JV7o6c7i3q6e59PT3wuv-3" value="" style="edgeStyle=orthogonalEdgeStyle;rounded=0;orthogonalLoop=1;jettySize=auto;html=1;fontFamily=Times New Roman;fontSize=12;" parent="1" source="JV7o6c7i3q6e59PT3wuv-4" target="JV7o6c7i3q6e59PT3wuv-8" edge="1">
          <mxGeometry relative="1" as="geometry" />
        </mxCell>
        <mxCell id="JV7o6c7i3q6e59PT3wuv-4" value="Input pilihan" style="shape=parallelogram;perimeter=parallelogramPerimeter;whiteSpace=wrap;html=1;fixedSize=1;fontFamily=Times New Roman;fillColor=#dae8fc;strokeColor=#6c8ebf;fontSize=12;" parent="1" vertex="1">
          <mxGeometry x="212.96" y="20" width="120" height="60" as="geometry" />
        </mxCell>
        <mxCell id="JV7o6c7i3q6e59PT3wuv-5" value="" style="edgeStyle=orthogonalEdgeStyle;rounded=0;orthogonalLoop=1;jettySize=auto;html=1;fontFamily=Times New Roman;fontSize=12;" parent="1" source="JV7o6c7i3q6e59PT3wuv-8" target="JV7o6c7i3q6e59PT3wuv-10" edge="1">
          <mxGeometry relative="1" as="geometry" />
        </mxCell>
        <mxCell id="JV7o6c7i3q6e59PT3wuv-6" value="True" style="edgeLabel;html=1;align=center;verticalAlign=middle;resizable=0;points=[];fontFamily=Times New Roman;fontSize=12;" parent="JV7o6c7i3q6e59PT3wuv-5" vertex="1" connectable="0">
          <mxGeometry x="-0.25" y="1" relative="1" as="geometry">
            <mxPoint as="offset" />
          </mxGeometry>
        </mxCell>
        <mxCell id="JV7o6c7i3q6e59PT3wuv-7" value="" style="edgeStyle=orthogonalEdgeStyle;rounded=0;orthogonalLoop=1;jettySize=auto;html=1;fontFamily=Times New Roman;fontSize=12;" parent="1" source="JV7o6c7i3q6e59PT3wuv-8" target="JV7o6c7i3q6e59PT3wuv-17" edge="1">
          <mxGeometry relative="1" as="geometry" />
        </mxCell>
        <mxCell id="JV7o6c7i3q6e59PT3wuv-8" value="pilihan == 1" style="rhombus;whiteSpace=wrap;html=1;fontFamily=Times New Roman;fillColor=#f8cecc;strokeColor=#b85450;fontSize=12;" parent="1" vertex="1">
          <mxGeometry x="336" y="10" width="80" height="80" as="geometry" />
        </mxCell>
        <mxCell id="JV7o6c7i3q6e59PT3wuv-9" value="" style="edgeStyle=orthogonalEdgeStyle;rounded=0;orthogonalLoop=1;jettySize=auto;html=1;fontFamily=Times New Roman;fontSize=12;" parent="1" source="JV7o6c7i3q6e59PT3wuv-10" target="JV7o6c7i3q6e59PT3wuv-12" edge="1">
          <mxGeometry relative="1" as="geometry" />
        </mxCell>
        <mxCell id="JV7o6c7i3q6e59PT3wuv-10" value="jenis = &quot;Sofa&quot;" style="whiteSpace=wrap;html=1;fontFamily=Times New Roman;fillColor=#fff2cc;strokeColor=#d6b656;fontSize=12;" parent="1" vertex="1">
          <mxGeometry x="456" y="20" width="120" height="60" as="geometry" />
        </mxCell>
        <mxCell id="JV7o6c7i3q6e59PT3wuv-11" style="edgeStyle=orthogonalEdgeStyle;rounded=0;orthogonalLoop=1;jettySize=auto;html=1;exitX=1;exitY=0.5;exitDx=0;exitDy=0;fontFamily=Times New Roman;fontSize=12;entryX=1;entryY=0.5;entryDx=0;entryDy=0;" parent="1" source="JV7o6c7i3q6e59PT3wuv-12" target="JV7o6c7i3q6e59PT3wuv-101" edge="1">
          <mxGeometry relative="1" as="geometry">
            <Array as="points">
              <mxPoint x="817" y="50" />
              <mxPoint x="817" y="480" />
            </Array>
            <mxPoint x="680" y="470" as="targetPoint" />
          </mxGeometry>
        </mxCell>
        <mxCell id="JV7o6c7i3q6e59PT3wuv-12" value="harga_satuan = 500000" style="whiteSpace=wrap;html=1;fontFamily=Times New Roman;fillColor=#fff2cc;strokeColor=#d6b656;fontSize=12;" parent="1" vertex="1">
          <mxGeometry x="616" y="20" width="120" height="60" as="geometry" />
        </mxCell>
        <mxCell id="JV7o6c7i3q6e59PT3wuv-13" value="" style="edgeStyle=orthogonalEdgeStyle;rounded=0;orthogonalLoop=1;jettySize=auto;html=1;fontFamily=Times New Roman;fontSize=12;" parent="1" source="JV7o6c7i3q6e59PT3wuv-17" target="JV7o6c7i3q6e59PT3wuv-19" edge="1">
          <mxGeometry relative="1" as="geometry" />
        </mxCell>
        <mxCell id="JV7o6c7i3q6e59PT3wuv-14" value="" style="edgeStyle=orthogonalEdgeStyle;rounded=0;orthogonalLoop=1;jettySize=auto;html=1;fontFamily=Times New Roman;fontSize=12;" parent="1" edge="1" source="JV7o6c7i3q6e59PT3wuv-17">
          <mxGeometry relative="1" as="geometry">
            <mxPoint x="373" y="149.99999999999977" as="sourcePoint" />
            <mxPoint x="373.0588235294117" y="191.7088235294118" as="targetPoint" />
          </mxGeometry>
        </mxCell>
        <mxCell id="JV7o6c7i3q6e59PT3wuv-15" value="False" style="edgeLabel;html=1;align=center;verticalAlign=middle;resizable=0;points=[];fontFamily=Times New Roman;fontSize=12;" parent="JV7o6c7i3q6e59PT3wuv-14" vertex="1" connectable="0">
          <mxGeometry x="0.1627" y="1" relative="1" as="geometry">
            <mxPoint as="offset" />
          </mxGeometry>
        </mxCell>
        <mxCell id="JV7o6c7i3q6e59PT3wuv-16" style="edgeStyle=orthogonalEdgeStyle;rounded=0;orthogonalLoop=1;jettySize=auto;html=1;exitX=0.5;exitY=1;exitDx=0;exitDy=0;entryX=0.5;entryY=0;entryDx=0;entryDy=0;fontFamily=Times New Roman;fontSize=12;" parent="1" source="JV7o6c7i3q6e59PT3wuv-17" target="JV7o6c7i3q6e59PT3wuv-25" edge="1">
          <mxGeometry relative="1" as="geometry" />
        </mxCell>
        <mxCell id="JV7o6c7i3q6e59PT3wuv-18" value="" style="edgeStyle=orthogonalEdgeStyle;rounded=0;orthogonalLoop=1;jettySize=auto;html=1;fontFamily=Times New Roman;fontSize=12;" parent="1" source="JV7o6c7i3q6e59PT3wuv-19" target="JV7o6c7i3q6e59PT3wuv-21" edge="1">
          <mxGeometry relative="1" as="geometry" />
        </mxCell>
        <mxCell id="JV7o6c7i3q6e59PT3wuv-19" value="jenis = &quot;Meja Belajar&quot;" style="whiteSpace=wrap;html=1;fontFamily=Times New Roman;fillColor=#fff2cc;strokeColor=#d6b656;fontSize=12;" parent="1" vertex="1">
          <mxGeometry x="453" y="131.65" width="120" height="60" as="geometry" />
        </mxCell>
        <mxCell id="70_2nkhWIhq_oPSp510H-3" style="edgeStyle=orthogonalEdgeStyle;rounded=0;orthogonalLoop=1;jettySize=auto;html=1;exitX=1;exitY=0.5;exitDx=0;exitDy=0;endArrow=none;endFill=0;" edge="1" parent="1">
          <mxGeometry relative="1" as="geometry">
            <mxPoint x="817" y="162" as="targetPoint" />
            <mxPoint x="730" y="161.64999999999998" as="sourcePoint" />
          </mxGeometry>
        </mxCell>
        <mxCell id="JV7o6c7i3q6e59PT3wuv-21" value="harga_satuan = 500000" style="whiteSpace=wrap;html=1;fontFamily=Times New Roman;fillColor=#fff2cc;strokeColor=#d6b656;fontSize=12;" parent="1" vertex="1">
          <mxGeometry x="613" y="131.65" width="120" height="60" as="geometry" />
        </mxCell>
        <mxCell id="JV7o6c7i3q6e59PT3wuv-22" value="" style="edgeStyle=orthogonalEdgeStyle;rounded=0;orthogonalLoop=1;jettySize=auto;html=1;fontFamily=Times New Roman;fontSize=12;" parent="1" source="JV7o6c7i3q6e59PT3wuv-25" target="JV7o6c7i3q6e59PT3wuv-27" edge="1">
          <mxGeometry relative="1" as="geometry" />
        </mxCell>
        <mxCell id="JV7o6c7i3q6e59PT3wuv-23" value="" style="edgeStyle=orthogonalEdgeStyle;rounded=0;orthogonalLoop=1;jettySize=auto;html=1;fontFamily=Times New Roman;fontSize=12;" parent="1" target="JV7o6c7i3q6e59PT3wuv-33" edge="1">
          <mxGeometry relative="1" as="geometry">
            <mxPoint x="373" y="251.6500000000002" as="sourcePoint" />
          </mxGeometry>
        </mxCell>
        <mxCell id="JV7o6c7i3q6e59PT3wuv-24" value="False" style="edgeLabel;html=1;align=center;verticalAlign=middle;resizable=0;points=[];fontFamily=Times New Roman;fontSize=12;" parent="JV7o6c7i3q6e59PT3wuv-23" vertex="1" connectable="0">
          <mxGeometry x="0.1437" relative="1" as="geometry">
            <mxPoint y="16" as="offset" />
          </mxGeometry>
        </mxCell>
        <mxCell id="JV7o6c7i3q6e59PT3wuv-25" value="pilihan == 3" style="rhombus;whiteSpace=wrap;html=1;fontFamily=Times New Roman;fillColor=#f8cecc;strokeColor=#b85450;fontSize=12;" parent="1" vertex="1">
          <mxGeometry x="333" y="231.64999999999998" width="80" height="80" as="geometry" />
        </mxCell>
        <mxCell id="JV7o6c7i3q6e59PT3wuv-26" value="" style="edgeStyle=orthogonalEdgeStyle;rounded=0;orthogonalLoop=1;jettySize=auto;html=1;fontFamily=Times New Roman;fontSize=12;" parent="1" source="JV7o6c7i3q6e59PT3wuv-27" target="JV7o6c7i3q6e59PT3wuv-29" edge="1">
          <mxGeometry relative="1" as="geometry" />
        </mxCell>
        <mxCell id="JV7o6c7i3q6e59PT3wuv-27" value="jenis = &quot;Rak Lemari&quot;" style="whiteSpace=wrap;html=1;fontFamily=Times New Roman;fillColor=#fff2cc;strokeColor=#d6b656;fontSize=12;" parent="1" vertex="1">
          <mxGeometry x="453" y="241.64999999999998" width="120" height="60" as="geometry" />
        </mxCell>
        <mxCell id="70_2nkhWIhq_oPSp510H-5" style="edgeStyle=orthogonalEdgeStyle;rounded=0;orthogonalLoop=1;jettySize=auto;html=1;exitX=1;exitY=0.5;exitDx=0;exitDy=0;endArrow=none;endFill=0;" edge="1" parent="1">
          <mxGeometry relative="1" as="geometry">
            <mxPoint x="817" y="272" as="targetPoint" />
            <mxPoint x="730" y="271.65" as="sourcePoint" />
          </mxGeometry>
        </mxCell>
        <mxCell id="JV7o6c7i3q6e59PT3wuv-29" value="harga_satuan = 500000" style="whiteSpace=wrap;html=1;fontFamily=Times New Roman;fillColor=#fff2cc;strokeColor=#d6b656;fontSize=12;" parent="1" vertex="1">
          <mxGeometry x="613" y="241.64999999999998" width="120" height="60" as="geometry" />
        </mxCell>
        <mxCell id="JV7o6c7i3q6e59PT3wuv-30" value="" style="edgeStyle=orthogonalEdgeStyle;rounded=0;orthogonalLoop=1;jettySize=auto;html=1;fontFamily=Times New Roman;fontSize=12;" parent="1" source="JV7o6c7i3q6e59PT3wuv-33" target="JV7o6c7i3q6e59PT3wuv-35" edge="1">
          <mxGeometry relative="1" as="geometry" />
        </mxCell>
        <mxCell id="JV7o6c7i3q6e59PT3wuv-31" value="" style="edgeStyle=orthogonalEdgeStyle;rounded=0;orthogonalLoop=1;jettySize=auto;html=1;fontFamily=Times New Roman;fontSize=12;" parent="1" source="JV7o6c7i3q6e59PT3wuv-33" target="JV7o6c7i3q6e59PT3wuv-39" edge="1">
          <mxGeometry relative="1" as="geometry" />
        </mxCell>
        <mxCell id="JV7o6c7i3q6e59PT3wuv-32" value="False" style="edgeLabel;html=1;align=center;verticalAlign=middle;resizable=0;points=[];fontFamily=Times New Roman;fontSize=12;" parent="JV7o6c7i3q6e59PT3wuv-31" vertex="1" connectable="0">
          <mxGeometry x="-0.1216" relative="1" as="geometry">
            <mxPoint as="offset" />
          </mxGeometry>
        </mxCell>
        <mxCell id="JV7o6c7i3q6e59PT3wuv-33" value="pilihan == 4" style="rhombus;whiteSpace=wrap;html=1;fontFamily=Times New Roman;fillColor=#f8cecc;strokeColor=#b85450;fontSize=12;" parent="1" vertex="1">
          <mxGeometry x="333" y="333.02" width="80" height="80" as="geometry" />
        </mxCell>
        <mxCell id="5nkIVNsCEJeRnYj8h-63-4" style="edgeStyle=orthogonalEdgeStyle;rounded=0;orthogonalLoop=1;jettySize=auto;html=1;exitX=1;exitY=0.5;exitDx=0;exitDy=0;entryX=0;entryY=0.5;entryDx=0;entryDy=0;" edge="1" parent="1" source="JV7o6c7i3q6e59PT3wuv-35" target="JV7o6c7i3q6e59PT3wuv-98">
          <mxGeometry relative="1" as="geometry" />
        </mxCell>
        <mxCell id="JV7o6c7i3q6e59PT3wuv-35" value="Output &quot; Terima kasih&amp;nbsp;&lt;div&gt;telah&amp;nbsp; berbelanja di Toko Furnitur&amp;nbsp; Infordeh&quot;&lt;/div&gt;" style="shape=parallelogram;perimeter=parallelogramPerimeter;whiteSpace=wrap;html=1;fixedSize=1;fontFamily=Times New Roman;fillColor=#d5e8d4;strokeColor=#82b366;fontSize=12;" parent="1" vertex="1">
          <mxGeometry x="453" y="343.02" width="147" height="60" as="geometry" />
        </mxCell>
        <mxCell id="JV7o6c7i3q6e59PT3wuv-38" style="edgeStyle=orthogonalEdgeStyle;rounded=0;orthogonalLoop=1;jettySize=auto;html=1;exitX=1;exitY=0.5;exitDx=0;exitDy=0;fontFamily=Times New Roman;fontSize=12;entryX=0;entryY=0.5;entryDx=0;entryDy=0;" parent="1" source="JV7o6c7i3q6e59PT3wuv-39" target="oNlDcKhDF2wnrpuRoKuf-6" edge="1">
          <mxGeometry relative="1" as="geometry">
            <mxPoint x="540" y="480" as="targetPoint" />
          </mxGeometry>
        </mxCell>
        <mxCell id="JV7o6c7i3q6e59PT3wuv-39" value="Output &quot;Pilihan&amp;nbsp;&lt;div&gt;anda tidak valid&quot;&lt;/div&gt;" style="shape=parallelogram;perimeter=parallelogramPerimeter;whiteSpace=wrap;html=1;fixedSize=1;fontFamily=Times New Roman;fillColor=#d5e8d4;strokeColor=#82b366;fontSize=12;" parent="1" vertex="1">
          <mxGeometry x="315.54" y="450" width="104.46" height="60" as="geometry" />
        </mxCell>
        <mxCell id="JV7o6c7i3q6e59PT3wuv-40" value="True" style="edgeLabel;html=1;align=center;verticalAlign=middle;resizable=0;points=[];fontFamily=Times New Roman;fontSize=12;" parent="1" vertex="1" connectable="0">
          <mxGeometry x="433" y="170" as="geometry" />
        </mxCell>
        <mxCell id="JV7o6c7i3q6e59PT3wuv-41" value="True" style="edgeLabel;html=1;align=center;verticalAlign=middle;resizable=0;points=[];fontFamily=Times New Roman;fontSize=12;" parent="1" vertex="1" connectable="0">
          <mxGeometry x="433" y="271.65" as="geometry" />
        </mxCell>
        <mxCell id="JV7o6c7i3q6e59PT3wuv-42" value="True" style="edgeLabel;html=1;align=center;verticalAlign=middle;resizable=0;points=[];fontFamily=Times New Roman;fontSize=12;" parent="1" vertex="1" connectable="0">
          <mxGeometry x="433" y="373.02" as="geometry" />
        </mxCell>
        <mxCell id="JV7o6c7i3q6e59PT3wuv-43" value="False" style="edgeLabel;html=1;align=center;verticalAlign=middle;resizable=0;points=[];fontFamily=Times New Roman;fontSize=12;" parent="1" vertex="1" connectable="0">
          <mxGeometry x="376" y="100" as="geometry">
            <mxPoint x="-6" y="2" as="offset" />
          </mxGeometry>
        </mxCell>
        <mxCell id="JV7o6c7i3q6e59PT3wuv-44" value="False" style="edgeLabel;html=1;align=center;verticalAlign=middle;resizable=0;points=[];fontFamily=Times New Roman;fontSize=12;" parent="1" vertex="1" connectable="0">
          <mxGeometry x="378" y="213" as="geometry">
            <mxPoint x="-6" y="2" as="offset" />
          </mxGeometry>
        </mxCell>
        <mxCell id="JV7o6c7i3q6e59PT3wuv-45" style="edgeStyle=orthogonalEdgeStyle;rounded=0;orthogonalLoop=1;jettySize=auto;html=1;exitX=0.5;exitY=1;exitDx=0;exitDy=0;entryX=0.5;entryY=0;entryDx=0;entryDy=0;fontFamily=Times New Roman;fontSize=12;" parent="1" source="JV7o6c7i3q6e59PT3wuv-46" target="JV7o6c7i3q6e59PT3wuv-48" edge="1">
          <mxGeometry relative="1" as="geometry" />
        </mxCell>
        <mxCell id="JV7o6c7i3q6e59PT3wuv-46" value="Output &quot;Berapa unit&quot;&lt;div&gt;&amp;amp;jenis&amp;amp;&lt;/div&gt;&lt;div&gt;&quot;&amp;nbsp;&lt;span style=&quot;background-color: transparent; color: light-dark(rgb(0, 0, 0), rgb(255, 255, 255));&quot;&gt;yang ingin dibeli?&quot;&lt;/span&gt;&lt;/div&gt;" style="shape=parallelogram;perimeter=parallelogramPerimeter;whiteSpace=wrap;html=1;fixedSize=1;fontFamily=Times New Roman;fillColor=#d5e8d4;strokeColor=#82b366;fontSize=12;" parent="1" vertex="1">
          <mxGeometry x="63.88" y="271.65" width="139.04" height="60" as="geometry" />
        </mxCell>
        <mxCell id="JV7o6c7i3q6e59PT3wuv-47" style="edgeStyle=orthogonalEdgeStyle;rounded=0;orthogonalLoop=1;jettySize=auto;html=1;exitX=0.5;exitY=1;exitDx=0;exitDy=0;entryX=0.5;entryY=0;entryDx=0;entryDy=0;fontFamily=Times New Roman;fontSize=12;" parent="1" source="JV7o6c7i3q6e59PT3wuv-48" target="JV7o6c7i3q6e59PT3wuv-50" edge="1">
          <mxGeometry relative="1" as="geometry" />
        </mxCell>
        <mxCell id="JV7o6c7i3q6e59PT3wuv-48" value="Input jumlah" style="shape=parallelogram;perimeter=parallelogramPerimeter;whiteSpace=wrap;html=1;fixedSize=1;fontFamily=Times New Roman;fillColor=#dae8fc;strokeColor=#6c8ebf;fontSize=12;" parent="1" vertex="1">
          <mxGeometry x="82.92000000000007" y="341.65000000000003" width="96.08" height="40" as="geometry" />
        </mxCell>
        <mxCell id="JV7o6c7i3q6e59PT3wuv-49" style="edgeStyle=orthogonalEdgeStyle;rounded=0;orthogonalLoop=1;jettySize=auto;html=1;exitX=0.5;exitY=1;exitDx=0;exitDy=0;entryX=0.5;entryY=0;entryDx=0;entryDy=0;fontFamily=Times New Roman;fontSize=12;" parent="1" source="JV7o6c7i3q6e59PT3wuv-50" target="JV7o6c7i3q6e59PT3wuv-55" edge="1">
          <mxGeometry relative="1" as="geometry" />
        </mxCell>
        <mxCell id="JV7o6c7i3q6e59PT3wuv-50" value="total = 0" style="rounded=0;whiteSpace=wrap;html=1;fontFamily=Times New Roman;fillColor=#fff2cc;strokeColor=#d6b656;fontSize=12;" parent="1" vertex="1">
          <mxGeometry x="95.96000000000004" y="391.65000000000003" width="70" height="30" as="geometry" />
        </mxCell>
        <mxCell id="JV7o6c7i3q6e59PT3wuv-51" style="edgeStyle=orthogonalEdgeStyle;rounded=0;orthogonalLoop=1;jettySize=auto;html=1;exitX=1;exitY=0.5;exitDx=0;exitDy=0;entryX=0;entryY=0.5;entryDx=0;entryDy=0;fontFamily=Times New Roman;fontSize=12;" parent="1" source="JV7o6c7i3q6e59PT3wuv-55" target="JV7o6c7i3q6e59PT3wuv-57" edge="1">
          <mxGeometry relative="1" as="geometry" />
        </mxCell>
        <mxCell id="JV7o6c7i3q6e59PT3wuv-52" value="True" style="edgeLabel;html=1;align=center;verticalAlign=middle;resizable=0;points=[];fontSize=12;fontFamily=Times New Roman;" parent="JV7o6c7i3q6e59PT3wuv-51" vertex="1" connectable="0">
          <mxGeometry x="-0.261" relative="1" as="geometry">
            <mxPoint as="offset" />
          </mxGeometry>
        </mxCell>
        <mxCell id="JV7o6c7i3q6e59PT3wuv-53" style="edgeStyle=orthogonalEdgeStyle;rounded=0;orthogonalLoop=1;jettySize=auto;html=1;exitX=0.5;exitY=1;exitDx=0;exitDy=0;entryX=0.5;entryY=0;entryDx=0;entryDy=0;fontFamily=Times New Roman;fontSize=12;" parent="1" source="JV7o6c7i3q6e59PT3wuv-55" target="JV7o6c7i3q6e59PT3wuv-61" edge="1">
          <mxGeometry relative="1" as="geometry" />
        </mxCell>
        <mxCell id="JV7o6c7i3q6e59PT3wuv-54" value="False" style="edgeLabel;html=1;align=center;verticalAlign=middle;resizable=0;points=[];fontSize=12;fontFamily=Times New Roman;" parent="JV7o6c7i3q6e59PT3wuv-53" vertex="1" connectable="0">
          <mxGeometry x="0.0039" relative="1" as="geometry">
            <mxPoint y="4" as="offset" />
          </mxGeometry>
        </mxCell>
        <mxCell id="JV7o6c7i3q6e59PT3wuv-55" value="i &amp;lt; jumlah" style="shape=hexagon;perimeter=hexagonPerimeter2;whiteSpace=wrap;html=1;fixedSize=1;fontFamily=Times New Roman;fillColor=#ffe6cc;strokeColor=#d79b00;fontSize=12;" parent="1" vertex="1">
          <mxGeometry x="90.96000000000004" y="431.65000000000003" width="80" height="40" as="geometry" />
        </mxCell>
        <mxCell id="JV7o6c7i3q6e59PT3wuv-56" style="edgeStyle=orthogonalEdgeStyle;rounded=0;orthogonalLoop=1;jettySize=auto;html=1;exitX=1;exitY=0.5;exitDx=0;exitDy=0;entryX=0.625;entryY=1;entryDx=0;entryDy=0;fontFamily=Times New Roman;fontSize=12;" parent="1" source="JV7o6c7i3q6e59PT3wuv-57" target="JV7o6c7i3q6e59PT3wuv-55" edge="1">
          <mxGeometry relative="1" as="geometry" />
        </mxCell>
        <mxCell id="JV7o6c7i3q6e59PT3wuv-57" value="total += harga_satuan" style="rounded=0;whiteSpace=wrap;html=1;fontFamily=Times New Roman;fillColor=#fff2cc;strokeColor=#d6b656;fontSize=12;" parent="1" vertex="1">
          <mxGeometry x="202.92000000000007" y="426.65000000000003" width="89" height="50" as="geometry" />
        </mxCell>
        <mxCell id="JV7o6c7i3q6e59PT3wuv-58" value="" style="edgeStyle=orthogonalEdgeStyle;rounded=0;orthogonalLoop=1;jettySize=auto;html=1;fontFamily=Times New Roman;fontSize=12;" parent="1" source="JV7o6c7i3q6e59PT3wuv-61" target="JV7o6c7i3q6e59PT3wuv-63" edge="1">
          <mxGeometry relative="1" as="geometry" />
        </mxCell>
        <mxCell id="JV7o6c7i3q6e59PT3wuv-59" value="True" style="edgeLabel;html=1;align=center;verticalAlign=middle;resizable=0;points=[];fontFamily=Times New Roman;fontSize=12;" parent="JV7o6c7i3q6e59PT3wuv-58" vertex="1" connectable="0">
          <mxGeometry x="-0.25" y="1" relative="1" as="geometry">
            <mxPoint as="offset" />
          </mxGeometry>
        </mxCell>
        <mxCell id="JV7o6c7i3q6e59PT3wuv-60" value="" style="edgeStyle=orthogonalEdgeStyle;rounded=0;orthogonalLoop=1;jettySize=auto;html=1;fontFamily=Times New Roman;fontSize=12;" parent="1" source="JV7o6c7i3q6e59PT3wuv-61" target="JV7o6c7i3q6e59PT3wuv-70" edge="1">
          <mxGeometry relative="1" as="geometry" />
        </mxCell>
        <mxCell id="JV7o6c7i3q6e59PT3wuv-61" value="total &amp;gt;= 700000" style="rhombus;whiteSpace=wrap;html=1;fontFamily=Times New Roman;fillColor=#f8cecc;strokeColor=#b85450;fontSize=12;" parent="1" vertex="1">
          <mxGeometry x="90" y="511.6500000000001" width="80" height="80" as="geometry" />
        </mxCell>
        <mxCell id="JV7o6c7i3q6e59PT3wuv-62" value="" style="edgeStyle=orthogonalEdgeStyle;rounded=0;orthogonalLoop=1;jettySize=auto;html=1;fontFamily=Times New Roman;fontSize=12;" parent="1" source="JV7o6c7i3q6e59PT3wuv-63" target="JV7o6c7i3q6e59PT3wuv-65" edge="1">
          <mxGeometry relative="1" as="geometry" />
        </mxCell>
        <mxCell id="JV7o6c7i3q6e59PT3wuv-63" value="diskon = 0.2" style="whiteSpace=wrap;html=1;fontFamily=Times New Roman;fillColor=#fff2cc;strokeColor=#d6b656;fontSize=12;" parent="1" vertex="1">
          <mxGeometry x="210.8800000000001" y="536.6500000000001" width="73.08" height="30" as="geometry" />
        </mxCell>
        <mxCell id="JV7o6c7i3q6e59PT3wuv-64" value="" style="edgeStyle=orthogonalEdgeStyle;rounded=0;orthogonalLoop=1;jettySize=auto;html=1;fontFamily=Times New Roman;fontSize=12;" parent="1" source="JV7o6c7i3q6e59PT3wuv-65" target="JV7o6c7i3q6e59PT3wuv-88" edge="1">
          <mxGeometry relative="1" as="geometry" />
        </mxCell>
        <mxCell id="JV7o6c7i3q6e59PT3wuv-65" value="total_akhir = total - diskon" style="whiteSpace=wrap;html=1;fontFamily=Times New Roman;fillColor=#fff2cc;strokeColor=#d6b656;fontSize=12;" parent="1" vertex="1">
          <mxGeometry x="303.0799999999999" y="536.6500000000001" width="97" height="30" as="geometry" />
        </mxCell>
        <mxCell id="JV7o6c7i3q6e59PT3wuv-66" value="" style="edgeStyle=orthogonalEdgeStyle;rounded=0;orthogonalLoop=1;jettySize=auto;html=1;fontFamily=Times New Roman;fontSize=12;" parent="1" source="JV7o6c7i3q6e59PT3wuv-70" target="JV7o6c7i3q6e59PT3wuv-72" edge="1">
          <mxGeometry relative="1" as="geometry" />
        </mxCell>
        <mxCell id="JV7o6c7i3q6e59PT3wuv-67" value="" style="edgeStyle=orthogonalEdgeStyle;rounded=0;orthogonalLoop=1;jettySize=auto;html=1;fontFamily=Times New Roman;fontSize=12;" parent="1" edge="1">
          <mxGeometry relative="1" as="geometry">
            <mxPoint x="127" y="651.6499999999999" as="sourcePoint" />
            <mxPoint x="127.05882352941171" y="693.3588235294119" as="targetPoint" />
          </mxGeometry>
        </mxCell>
        <mxCell id="JV7o6c7i3q6e59PT3wuv-68" value="False" style="edgeLabel;html=1;align=center;verticalAlign=middle;resizable=0;points=[];fontFamily=Times New Roman;fontSize=12;" parent="JV7o6c7i3q6e59PT3wuv-67" vertex="1" connectable="0">
          <mxGeometry x="0.1627" y="1" relative="1" as="geometry">
            <mxPoint as="offset" />
          </mxGeometry>
        </mxCell>
        <mxCell id="JV7o6c7i3q6e59PT3wuv-69" style="edgeStyle=orthogonalEdgeStyle;rounded=0;orthogonalLoop=1;jettySize=auto;html=1;exitX=0.5;exitY=1;exitDx=0;exitDy=0;entryX=0.5;entryY=0;entryDx=0;entryDy=0;fontFamily=Times New Roman;fontSize=12;" parent="1" source="JV7o6c7i3q6e59PT3wuv-70" target="JV7o6c7i3q6e59PT3wuv-78" edge="1">
          <mxGeometry relative="1" as="geometry" />
        </mxCell>
        <mxCell id="JV7o6c7i3q6e59PT3wuv-70" value="total &amp;gt;= 500000" style="rhombus;whiteSpace=wrap;html=1;fontFamily=Times New Roman;fillColor=#f8cecc;strokeColor=#b85450;fontSize=12;" parent="1" vertex="1">
          <mxGeometry x="87" y="631.6500000000001" width="80" height="80" as="geometry" />
        </mxCell>
        <mxCell id="JV7o6c7i3q6e59PT3wuv-71" value="" style="edgeStyle=orthogonalEdgeStyle;rounded=0;orthogonalLoop=1;jettySize=auto;html=1;fontFamily=Times New Roman;fontSize=12;" parent="1" source="JV7o6c7i3q6e59PT3wuv-72" target="JV7o6c7i3q6e59PT3wuv-74" edge="1">
          <mxGeometry relative="1" as="geometry" />
        </mxCell>
        <mxCell id="JV7o6c7i3q6e59PT3wuv-72" value="diskon = 0.08" style="whiteSpace=wrap;html=1;fontFamily=Times New Roman;fillColor=#fff2cc;strokeColor=#d6b656;fontSize=12;" parent="1" vertex="1">
          <mxGeometry x="210" y="661.6500000000001" width="86.08" height="20" as="geometry" />
        </mxCell>
        <mxCell id="JV7o6c7i3q6e59PT3wuv-73" style="edgeStyle=orthogonalEdgeStyle;rounded=0;orthogonalLoop=1;jettySize=auto;html=1;exitX=1;exitY=0.5;exitDx=0;exitDy=0;entryX=0;entryY=0.5;entryDx=0;entryDy=0;fontFamily=Times New Roman;fontSize=12;" parent="1" source="JV7o6c7i3q6e59PT3wuv-74" target="JV7o6c7i3q6e59PT3wuv-90" edge="1">
          <mxGeometry relative="1" as="geometry" />
        </mxCell>
        <mxCell id="JV7o6c7i3q6e59PT3wuv-74" value="total_akhir = total - diskon" style="whiteSpace=wrap;html=1;fontFamily=Times New Roman;fillColor=#fff2cc;strokeColor=#d6b656;fontSize=12;" parent="1" vertex="1">
          <mxGeometry x="318.27" y="657.47" width="84.54" height="28.35" as="geometry" />
        </mxCell>
        <mxCell id="JV7o6c7i3q6e59PT3wuv-75" value="" style="edgeStyle=orthogonalEdgeStyle;rounded=0;orthogonalLoop=1;jettySize=auto;html=1;fontFamily=Times New Roman;fontSize=12;" parent="1" source="JV7o6c7i3q6e59PT3wuv-78" target="JV7o6c7i3q6e59PT3wuv-80" edge="1">
          <mxGeometry relative="1" as="geometry" />
        </mxCell>
        <mxCell id="JV7o6c7i3q6e59PT3wuv-76" value="" style="edgeStyle=orthogonalEdgeStyle;rounded=0;orthogonalLoop=1;jettySize=auto;html=1;entryX=0.5;entryY=0;entryDx=0;entryDy=0;fontFamily=Times New Roman;fontSize=12;" parent="1" target="JV7o6c7i3q6e59PT3wuv-82" edge="1">
          <mxGeometry relative="1" as="geometry">
            <mxPoint x="127" y="753.3000000000002" as="sourcePoint" />
            <mxPoint x="127" y="834.6700000000001" as="targetPoint" />
          </mxGeometry>
        </mxCell>
        <mxCell id="JV7o6c7i3q6e59PT3wuv-77" value="False" style="edgeLabel;html=1;align=center;verticalAlign=middle;resizable=0;points=[];fontFamily=Times New Roman;fontSize=12;" parent="JV7o6c7i3q6e59PT3wuv-76" vertex="1" connectable="0">
          <mxGeometry x="0.1437" relative="1" as="geometry">
            <mxPoint y="16" as="offset" />
          </mxGeometry>
        </mxCell>
        <mxCell id="JV7o6c7i3q6e59PT3wuv-78" value="total &amp;gt;= 150000" style="rhombus;whiteSpace=wrap;html=1;fontFamily=Times New Roman;fillColor=#f8cecc;strokeColor=#b85450;fontSize=12;" parent="1" vertex="1">
          <mxGeometry x="87" y="733.3000000000002" width="80" height="80" as="geometry" />
        </mxCell>
        <mxCell id="JV7o6c7i3q6e59PT3wuv-79" value="" style="edgeStyle=orthogonalEdgeStyle;rounded=0;orthogonalLoop=1;jettySize=auto;html=1;entryX=0;entryY=0.5;entryDx=0;entryDy=0;fontFamily=Times New Roman;fontSize=12;" parent="1" source="JV7o6c7i3q6e59PT3wuv-80" target="JV7o6c7i3q6e59PT3wuv-92" edge="1">
          <mxGeometry relative="1" as="geometry">
            <mxPoint x="367" y="773.3000000000002" as="targetPoint" />
          </mxGeometry>
        </mxCell>
        <mxCell id="JV7o6c7i3q6e59PT3wuv-80" value="total_akhir = total" style="whiteSpace=wrap;html=1;fontFamily=Times New Roman;fillColor=#fff2cc;strokeColor=#d6b656;fontSize=12;" parent="1" vertex="1">
          <mxGeometry x="210" y="759.1200000000001" width="83.08" height="28.35" as="geometry" />
        </mxCell>
        <mxCell id="JV7o6c7i3q6e59PT3wuv-81" style="edgeStyle=orthogonalEdgeStyle;rounded=0;orthogonalLoop=1;jettySize=auto;html=1;exitX=0.5;exitY=1;exitDx=0;exitDy=0;entryX=0.5;entryY=0;entryDx=0;entryDy=0;fontFamily=Times New Roman;fontSize=12;" parent="1" source="JV7o6c7i3q6e59PT3wuv-82" target="JV7o6c7i3q6e59PT3wuv-94" edge="1">
          <mxGeometry relative="1" as="geometry" />
        </mxCell>
        <mxCell id="JV7o6c7i3q6e59PT3wuv-82" value="total_akhir = total" style="whiteSpace=wrap;html=1;fontFamily=Times New Roman;fillColor=#fff2cc;strokeColor=#d6b656;fontSize=12;" parent="1" vertex="1">
          <mxGeometry x="67" y="860" width="120" height="38.35" as="geometry" />
        </mxCell>
        <mxCell id="JV7o6c7i3q6e59PT3wuv-83" value="True" style="edgeLabel;html=1;align=center;verticalAlign=middle;resizable=0;points=[];fontFamily=Times New Roman;fontSize=12;" parent="1" vertex="1" connectable="0">
          <mxGeometry x="187" y="671.6500000000001" as="geometry" />
        </mxCell>
        <mxCell id="JV7o6c7i3q6e59PT3wuv-84" value="True" style="edgeLabel;html=1;align=center;verticalAlign=middle;resizable=0;points=[];fontFamily=Times New Roman;fontSize=12;" parent="1" vertex="1" connectable="0">
          <mxGeometry x="187" y="773.3000000000002" as="geometry" />
        </mxCell>
        <mxCell id="JV7o6c7i3q6e59PT3wuv-85" value="False" style="edgeLabel;html=1;align=center;verticalAlign=middle;resizable=0;points=[];fontFamily=Times New Roman;fontSize=12;" parent="1" vertex="1" connectable="0">
          <mxGeometry x="130" y="601.6500000000001" as="geometry">
            <mxPoint x="-6" y="2" as="offset" />
          </mxGeometry>
        </mxCell>
        <mxCell id="JV7o6c7i3q6e59PT3wuv-86" value="False" style="edgeLabel;html=1;align=center;verticalAlign=middle;resizable=0;points=[];fontFamily=Times New Roman;fontSize=12;" parent="1" vertex="1" connectable="0">
          <mxGeometry x="130" y="721.6500000000001" as="geometry">
            <mxPoint x="-6" y="2" as="offset" />
          </mxGeometry>
        </mxCell>
        <mxCell id="JV7o6c7i3q6e59PT3wuv-87" style="edgeStyle=orthogonalEdgeStyle;rounded=0;orthogonalLoop=1;jettySize=auto;html=1;exitX=1;exitY=0.5;exitDx=0;exitDy=0;entryX=0.5;entryY=0;entryDx=0;entryDy=0;fontFamily=Times New Roman;fontSize=12;" parent="1" source="JV7o6c7i3q6e59PT3wuv-88" target="JV7o6c7i3q6e59PT3wuv-96" edge="1">
          <mxGeometry relative="1" as="geometry">
            <mxPoint x="259" y="1051.65" as="targetPoint" />
            <Array as="points">
              <mxPoint x="529.0799999999999" y="551.6500000000001" />
              <mxPoint x="529.0799999999999" y="821.6500000000001" />
              <mxPoint x="198.07999999999993" y="821.6500000000001" />
            </Array>
          </mxGeometry>
        </mxCell>
        <mxCell id="JV7o6c7i3q6e59PT3wuv-88" value="bonus = &quot;Diskon 20%&quot;" style="whiteSpace=wrap;html=1;fontFamily=Times New Roman;fillColor=#fff2cc;strokeColor=#d6b656;fontSize=12;" parent="1" vertex="1">
          <mxGeometry x="419" y="540.8299999999999" width="90" height="21.65" as="geometry" />
        </mxCell>
        <mxCell id="JV7o6c7i3q6e59PT3wuv-89" style="edgeStyle=orthogonalEdgeStyle;rounded=0;orthogonalLoop=1;jettySize=auto;html=1;exitX=1;exitY=0.5;exitDx=0;exitDy=0;endArrow=none;endFill=0;fontFamily=Times New Roman;fontSize=12;" parent="1" edge="1">
          <mxGeometry relative="1" as="geometry">
            <mxPoint x="529.0799999999999" y="671.6500000000001" as="targetPoint" />
            <mxPoint x="502.03999999999996" y="671.6500000000001" as="sourcePoint" />
          </mxGeometry>
        </mxCell>
        <mxCell id="JV7o6c7i3q6e59PT3wuv-90" value="bonus = &quot;Diskon 8%&quot;" style="whiteSpace=wrap;html=1;fontFamily=Times New Roman;fillColor=#fff2cc;strokeColor=#d6b656;fontSize=12;" parent="1" vertex="1">
          <mxGeometry x="421.96000000000004" y="656.6500000000001" width="84.08" height="30" as="geometry" />
        </mxCell>
        <mxCell id="JV7o6c7i3q6e59PT3wuv-91" style="edgeStyle=orthogonalEdgeStyle;rounded=0;orthogonalLoop=1;jettySize=auto;html=1;exitX=1;exitY=0.5;exitDx=0;exitDy=0;endArrow=none;endFill=0;fontFamily=Times New Roman;fontSize=12;" parent="1" edge="1">
          <mxGeometry relative="1" as="geometry">
            <mxPoint x="529.0799999999999" y="773.4775862068968" as="targetPoint" />
            <mxPoint x="401.53999999999996" y="773.2950000000001" as="sourcePoint" />
          </mxGeometry>
        </mxCell>
        <mxCell id="JV7o6c7i3q6e59PT3wuv-92" value="bonus = &quot;Bonus Kitchen Set&quot;" style="whiteSpace=wrap;html=1;fontFamily=Times New Roman;fillColor=#fff2cc;strokeColor=#d6b656;fontSize=12;" parent="1" vertex="1">
          <mxGeometry x="315.53999999999996" y="761.59" width="90" height="25.88" as="geometry" />
        </mxCell>
        <mxCell id="JV7o6c7i3q6e59PT3wuv-93" style="edgeStyle=orthogonalEdgeStyle;rounded=0;orthogonalLoop=1;jettySize=auto;html=1;exitX=0.5;exitY=1;exitDx=0;exitDy=0;entryX=0.5;entryY=0;entryDx=0;entryDy=0;endArrow=none;endFill=0;fontFamily=Times New Roman;fontSize=12;" parent="1" source="JV7o6c7i3q6e59PT3wuv-94" target="JV7o6c7i3q6e59PT3wuv-96" edge="1">
          <mxGeometry relative="1" as="geometry">
            <Array as="points">
              <mxPoint x="127" y="991.6500000000001" />
              <mxPoint x="196" y="991.6500000000001" />
            </Array>
          </mxGeometry>
        </mxCell>
        <mxCell id="JV7o6c7i3q6e59PT3wuv-94" value="bonus = &quot;-&quot;" style="whiteSpace=wrap;html=1;fontFamily=Times New Roman;fillColor=#fff2cc;strokeColor=#d6b656;fontSize=12;" parent="1" vertex="1">
          <mxGeometry x="67" y="921.65" width="120" height="38.35" as="geometry" />
        </mxCell>
        <mxCell id="JV7o6c7i3q6e59PT3wuv-95" style="edgeStyle=orthogonalEdgeStyle;rounded=0;orthogonalLoop=1;jettySize=auto;html=1;exitX=0.5;exitY=1;exitDx=0;exitDy=0;entryX=0.5;entryY=1;entryDx=0;entryDy=0;fontFamily=Times New Roman;fontSize=12;" parent="1" source="JV7o6c7i3q6e59PT3wuv-96" target="JV7o6c7i3q6e59PT3wuv-100" edge="1">
          <mxGeometry relative="1" as="geometry">
            <mxPoint x="37" y="400" as="targetPoint" />
          </mxGeometry>
        </mxCell>
        <mxCell id="JV7o6c7i3q6e59PT3wuv-96" value="Output &quot; STRUK PEMBELIAN&lt;br&gt;- Jenis Furnitur : &quot;&amp;amp;jenis&amp;amp;&lt;div&gt;&quot;-Jumlah Unit : &quot;&amp;amp;jumlah&amp;amp;&lt;/div&gt;&lt;div&gt;&quot;-Total Bayar :&amp;nbsp;&lt;span style=&quot;white-space: pre;&quot;&gt;&#x9;&lt;/span&gt;Rp.&quot;&amp;amp;total&amp;amp;&lt;/div&gt;&lt;div&gt;&quot;-Bonus/Diskon : &quot; &amp;amp;bonus&amp;amp;&lt;/div&gt;&lt;div&gt;&quot;Total Akhir : Rp.&quot;&amp;amp;total_akhir&lt;/div&gt;" style="shape=parallelogram;perimeter=parallelogramPerimeter;whiteSpace=wrap;html=1;fixedSize=1;fontFamily=Times New Roman;fillColor=#d5e8d4;strokeColor=#82b366;fontSize=12;" parent="1" vertex="1">
          <mxGeometry x="93.07999999999993" y="1011.6500000000001" width="210" height="110" as="geometry" />
        </mxCell>
        <mxCell id="5nkIVNsCEJeRnYj8h-63-3" style="edgeStyle=orthogonalEdgeStyle;rounded=0;orthogonalLoop=1;jettySize=auto;html=1;exitX=1;exitY=0.5;exitDx=0;exitDy=0;entryX=0;entryY=0.25;entryDx=0;entryDy=0;" edge="1" parent="1" source="JV7o6c7i3q6e59PT3wuv-98" target="-kaG09Hh-bKZYsGUB6lS-3">
          <mxGeometry relative="1" as="geometry" />
        </mxCell>
        <mxCell id="JV7o6c7i3q6e59PT3wuv-98" value="break" style="rounded=0;whiteSpace=wrap;html=1;fontFamily=Times New Roman;fillColor=#fff2cc;strokeColor=#d6b656;fontSize=12;" parent="1" vertex="1">
          <mxGeometry x="616.9999999999999" y="362.65" width="50" height="20" as="geometry" />
        </mxCell>
        <mxCell id="JV7o6c7i3q6e59PT3wuv-99" style="edgeStyle=orthogonalEdgeStyle;rounded=0;orthogonalLoop=1;jettySize=auto;html=1;exitX=1;exitY=0.5;exitDx=0;exitDy=0;entryX=0;entryY=0.5;entryDx=0;entryDy=0;fontFamily=Times New Roman;fontSize=12;" parent="1" source="JV7o6c7i3q6e59PT3wuv-100" target="JV7o6c7i3q6e59PT3wuv-2" edge="1">
          <mxGeometry relative="1" as="geometry" />
        </mxCell>
        <mxCell id="JV7o6c7i3q6e59PT3wuv-100" value="A" style="shape=offPageConnector;whiteSpace=wrap;html=1;fontFamily=Times New Roman;fillColor=#60a917;fontColor=#ffffff;strokeColor=#2D7600;fontSize=12;" parent="1" vertex="1">
          <mxGeometry x="7" y="30" width="33.08" height="40" as="geometry" />
        </mxCell>
        <mxCell id="JV7o6c7i3q6e59PT3wuv-101" value="B" style="ellipse;whiteSpace=wrap;html=1;aspect=fixed;fontFamily=Times New Roman;fillColor=#1ba1e2;fontColor=#ffffff;strokeColor=#006EAF;fontSize=12;" parent="1" vertex="1">
          <mxGeometry x="616" y="460" width="40" height="40" as="geometry" />
        </mxCell>
        <mxCell id="JV7o6c7i3q6e59PT3wuv-102" style="edgeStyle=orthogonalEdgeStyle;rounded=0;orthogonalLoop=1;jettySize=auto;html=1;exitX=0.5;exitY=1;exitDx=0;exitDy=0;entryX=0.5;entryY=0;entryDx=0;entryDy=0;fontFamily=Times New Roman;fontSize=12;" parent="1" source="JV7o6c7i3q6e59PT3wuv-103" target="JV7o6c7i3q6e59PT3wuv-46" edge="1">
          <mxGeometry relative="1" as="geometry" />
        </mxCell>
        <mxCell id="JV7o6c7i3q6e59PT3wuv-103" value="B" style="ellipse;whiteSpace=wrap;html=1;aspect=fixed;fontFamily=Times New Roman;fillColor=#1ba1e2;fontColor=#ffffff;strokeColor=#006EAF;fontSize=12;" parent="1" vertex="1">
          <mxGeometry x="110.95999999999994" y="201.64999999999998" width="40" height="40" as="geometry" />
        </mxCell>
        <mxCell id="oNlDcKhDF2wnrpuRoKuf-1" value="C" style="ellipse;whiteSpace=wrap;html=1;aspect=fixed;fontFamily=Times New Roman;fillColor=#6a00ff;fontColor=#ffffff;strokeColor=#3700CC;fontSize=12;" parent="1" vertex="1">
          <mxGeometry x="536" y="460" width="40" height="40" as="geometry" />
        </mxCell>
        <mxCell id="oNlDcKhDF2wnrpuRoKuf-4" style="edgeStyle=orthogonalEdgeStyle;rounded=0;orthogonalLoop=1;jettySize=auto;html=1;exitX=0.5;exitY=0;exitDx=0;exitDy=0;entryX=0.5;entryY=1;entryDx=0;entryDy=0;fontSize=12;fontFamily=Times New Roman;" parent="1" source="oNlDcKhDF2wnrpuRoKuf-3" target="JV7o6c7i3q6e59PT3wuv-2" edge="1">
          <mxGeometry relative="1" as="geometry" />
        </mxCell>
        <mxCell id="oNlDcKhDF2wnrpuRoKuf-3" value="C" style="ellipse;whiteSpace=wrap;html=1;aspect=fixed;fontFamily=Times New Roman;fillColor=#6a00ff;fontColor=#ffffff;strokeColor=#3700CC;fontSize=12;" parent="1" vertex="1">
          <mxGeometry x="122.91999999999999" y="100" width="40" height="40" as="geometry" />
        </mxCell>
        <mxCell id="oNlDcKhDF2wnrpuRoKuf-7" style="edgeStyle=orthogonalEdgeStyle;rounded=0;orthogonalLoop=1;jettySize=auto;html=1;exitX=1;exitY=0.5;exitDx=0;exitDy=0;entryX=0;entryY=0.5;entryDx=0;entryDy=0;fontSize=12;fontFamily=Times New Roman;" parent="1" source="oNlDcKhDF2wnrpuRoKuf-6" target="oNlDcKhDF2wnrpuRoKuf-1" edge="1">
          <mxGeometry relative="1" as="geometry" />
        </mxCell>
        <mxCell id="oNlDcKhDF2wnrpuRoKuf-6" value="continue" style="rounded=0;whiteSpace=wrap;html=1;fontFamily=Times New Roman;fillColor=#fff2cc;strokeColor=#d6b656;fontSize=12;" parent="1" vertex="1">
          <mxGeometry x="456.03999999999996" y="470" width="50" height="20" as="geometry" />
        </mxCell>
        <mxCell id="-kaG09Hh-bKZYsGUB6lS-3" value="D" style="shape=offPageConnector;whiteSpace=wrap;html=1;fontFamily=Times New Roman;fillColor=#d80073;fontColor=#ffffff;strokeColor=#A50040;fontSize=12;" parent="1" vertex="1">
          <mxGeometry x="684.92" y="362.02" width="33.08" height="40" as="geometry" />
        </mxCell>
        <mxCell id="70_2nkhWIhq_oPSp510H-1" value="" style="edgeStyle=orthogonalEdgeStyle;rounded=0;orthogonalLoop=1;jettySize=auto;html=1;fontFamily=Times New Roman;fontSize=12;" edge="1" parent="1" target="JV7o6c7i3q6e59PT3wuv-17">
          <mxGeometry relative="1" as="geometry">
            <mxPoint x="373" y="149.99999999999977" as="sourcePoint" />
            <mxPoint x="373.0588235294117" y="191.7088235294118" as="targetPoint" />
          </mxGeometry>
        </mxCell>
        <mxCell id="JV7o6c7i3q6e59PT3wuv-17" value="pilihan == 2" style="rhombus;whiteSpace=wrap;html=1;fontFamily=Times New Roman;fillColor=#f8cecc;strokeColor=#b85450;fontSize=12;" parent="1" vertex="1">
          <mxGeometry x="334" y="121.65" width="80" height="80" as="geometry" />
        </mxCell>
      </root>
    </mxGraphModel>
  </diagram>
</mxfile>
